<?xml version="1.0" encoding="UTF-8"?>
<svg id="Layer_2" data-name="Layer 2" xmlns="http://www.w3.org/2000/svg" viewBox="0 0 229.61 194.8">
  <defs>
    <style>
      .cls-1, .cls-2 {
        stroke-width: 0px;
      }

      .cls-2 {
        fill: #fff;
      }
    </style>
  </defs>
  <g id="Layer_1-2" data-name="Layer 1">
    <g>
      <path class="cls-1" d="M110.71,78.28c2.02-1.91,4.57-2.54,7.25-2.56,7.09-.06,14.19-.09,21.28.03,1.5.03,3.05.6,4.47,1.19,1.47.61,3,1.27,3.83,2.79.17-.08.3-.1.34-.17,1.49-2.43,3.99-2.9,6.51-3.3.51-.08,1.04-.06,1.56-.06,17.64,0,35.27,0,52.91,0h1.23c.03.72.06,1.36.09,2.14h1.17c5.69,0,11.39.02,17.08-.02.85,0,1.18.16,1.17,1.11-.03,14.67.04,29.35-.05,44.02-.03,5.32-2.18,9.75-6.75,12.71-2.3,1.48-4.84,2.45-7.67,2.44-6.6-.02-13.21,0-19.81-.08-1.31-.02-2.67-.29-3.92-.7-3.54-1.16-6.14-3.42-7.78-6.82-.99-2.05-1.28-4.21-1.3-6.43-.02-2.28.01-4.55.02-6.83,0-.42,0-.83,0-1.3h-11.67v16.93c.43.09.86.18,1.3.27,3.11.62,5.7,2.11,7.95,4.39,2.25,2.27,3.06,5,3.07,8.04.03,11.19.04,22.38-.02,33.57-.01,2.07-.34,4.14-.61,6.19-.28,2.13-1.76,3.53-3.22,4.9-1.88,1.77-4.06,3.04-6.61,3.57-1.09.23-2.22.38-3.33.38-6.67.03-13.34.08-20.01,0-2.9-.04-5.49-1.11-7.63-3.15-.37-.36-.78-.69-1.22-1.08-1.37,1.75-3.13,2.96-5.22,3.61-1.06.33-2.19.61-3.29.62-6.38.06-12.76-.03-19.13.06-2.36.03-4.51-.53-6.47-1.71-1.67-.99-3.2-2.2-4.84-3.34-1.67,2.75-4.71,3.61-7.66,4.54-1.2.38-2.52.49-3.79.5-5.92.05-11.84-.04-17.77.06-2.05.03-3.89-.39-5.64-1.4-.27-.16-.57-.28-1.01-.49-.03.66-.06,1.19-.09,1.85-.4,0-.78,0-1.15,0-10.67,0-21.35.06-32.02-.03-4.1-.04-7.48-1.81-10.08-5.05-1.7-2.11-2.33-4.52-2.35-7.16-.04-6.28-.08-12.55-.12-18.83,0-.19-.02-.42.07-.57.67-1.19.18-2.4.09-3.61-.14-1.88-.2-3.76-.23-5.64-.05-2.73-.06-5.46-.06-8.2,0-2.98,1.18-5.49,3.22-7.61,2.78-2.89,6.27-4.28,10.18-4.77.26-.03.52-.06.77-.1.06,0,.1-.07.22-.15-.17-.22-.31-.48-.51-.65-2.42-2.06-3.21-4.85-3.25-7.84-.08-6.41-.02-12.82-.02-19.23,0-.39,0-.78,0-1.29h-3.29v-16.38H.11c0-1.52,0-2.92,0-4.33,0-5.3,0-10.61,0-15.91,0-6.85.01-13.7,0-20.55C.09,42.05.01,37.24,0,32.44c0-2.61.19-5.23.08-7.84-.14-3.38,1.16-6.18,3.28-8.62,2.89-3.33,6.59-5.09,11.06-5.09,18.09,0,36.18.04,54.27-.03,4.44-.01,8.38,1.1,11.69,3.99,2.47-2.57,5.72-3.49,9.03-3.72,4.6-.32,9.23-.18,13.85-.16,2.47,0,4.94.13,7.4.29,1.06.07,2.11.35,3.22.54.05-.17.12-.41.2-.7.28-.02.57-.05.85-.05,9.01,0,18.03-.01,27.04,0,1.82,0,3.67-.07,5.45.24,2.42.43,4.79,1.13,7.14,1.87.72.23,1.27.97,1.9,1.49,4.02-3.47,8.87-4.05,14.06-3.74V0h28.78c-.1,24.07-.2,48.1-.31,72.23-.46,0-.81,0-1.16,0-10.18,0-20.37,0-30.55-.01-1.04,0-2.09-.06-3.1-.27-1.01-.21-1.97-.64-3-.99-.02.23-.05.68-.1,1.25h-63.66v3.4c4.53.33,9.26-.47,13.29,2.68ZM44.91,65.8h14.91v-17.75h3.38c0,.43,0,.81,0,1.19,0,8.49,0,16.98,0,25.47,0,1.17.23,2.29,1.08,3.14,2.15,2.17,4.65,3.51,7.83,3.17.84-.09,1.69-.02,2.54,0,.25,0,.49.06.82.1v50.45h14.89v-36.93h3.66v36.9h14.67v-1.24c0-8.33,0-16.66,0-24.98,0-5.53,0-11.06,0-16.59,0-1.47-.28-2.95-1.42-3.91-1.57-1.33-3.39-2.29-5.56-2.28-3.42.02-6.83,0-10.25,0-.34,0-.69-.03-1.14-.05v-13.41h-12.17c0-.48,0-.86,0-1.24,0-6.47,0-12.95,0-19.42,0-1.07,0-2.15,0-3.22.01-1.4-.64-2.35-1.93-2.86-.33-.13-.65-.27-1.12-.46,2.34-.8,3.04-1.56,3.05-3.27.02-4.78.02-9.56,0-14.35,0-1.81-.61-3.44-2.12-4.5-1.55-1.09-3.25-1.84-5.24-1.84-8.33.03-16.66.01-24.99.02-.28,0-.56.04-.87.07v47.8ZM40.12,17.92h-1.31c-7.87,0-15.75.02-23.62-.01-1.96,0-3.77.35-5.52,1.29-1.93,1.04-2.92,2.58-2.93,4.68-.03,12.1-.01,24.2-.02,36.3,0,1.25.45,2.28,1.28,3.17,1.67,1.78,3.84,2.42,6.16,2.49,3.32.09,6.64.02,9.96.03.34,0,.68.04,1.02.05v3.2H6.78v11.88c.44,0,.83,0,1.21,0,7.94,0,15.88-.04,23.82.02,2.63.02,4.78-.78,6.67-2.62,1.15-1.11,1.66-2.33,1.65-3.88-.01-18.48,0-36.95,0-55.43,0-.35,0-.7,0-1.19ZM177.65,17.92c-3.36,0-6.58-.01-9.79,0-.91,0-1.83.03-2.72.18-3.62.63-5.81,2.89-5.82,6.13-.03,11.87-.01,23.75-.01,35.62,0,1.76.76,3.1,2.09,4.21,1.62,1.35,3.54,1.77,5.53,1.79,8.2.05,16.4.02,24.6.02.32,0,.63-.03.96-.05V6.01h-14.84v11.91ZM127.45,112.35h18.27c0-8.16.02-16.18-.01-24.21,0-1.36-.59-2.6-1.66-3.41-1.66-1.25-3.44-2.25-5.68-2.22-5.92.07-11.84.05-17.76,0-2.02-.02-3.81.49-5.53,1.56-1.79,1.11-2.57,2.63-2.57,4.69.01,11.8,0,23.61.01,35.41,0,.62.04,1.24.13,1.84.53,3.67,3.76,5.5,7.31,5.56,6.18.12,12.36.07,18.54.02,3.16-.03,6.5-1.99,7.02-5.3.12-.8.22-1.61.23-2.42.03-2.11.01-4.23.01-6.34,0-.61,0-1.21,0-1.81h-14.99v2.71h-3.3v-6.08ZM59.73,188.24c.04-.29.07-.42.07-.54,0-13.79.02-27.58-.04-41.38,0-1.02-.28-2.25-.89-3.01-1.55-1.93-3.63-3.18-6.21-3.19-6.28-.04-12.56-.04-18.84.01-1.05,0-2.17.19-3.13.6-2.11.9-4.05,2.15-4.13,4.78-.09,3.12,0,6.24,0,9.36,0,.05.07.1.13.17h14.53v-2.82h3.53v5.74c-.42,0-.77,0-1.12,0-3.16,0-6.31.02-9.47,0-1.86-.02-3.56.45-5.01,1.61-1.63,1.3-2.71,2.84-2.67,5.11.09,5.69.05,11.38.02,17.08-.01,2.28.86,3.98,2.87,5.15,1.54.89,3.15,1.34,4.92,1.34,8.13,0,16.27,0,24.4,0h1.03ZM33.79,85.42v11.98h3.61c0,.5,0,.88,0,1.26,0,8.49,0,16.98,0,25.46,0,4.51,2.81,7.34,7.15,7.44,6.24.14,12.49.1,18.73.01,3.37-.05,6.28-1.75,7.01-4.79.22-.91.34-1.86.34-2.79.03-7.51.02-15.03.01-22.54,0-.34-.03-.69-.04-1h-14.82v17.98h-3.38v-21.06h18.19v-11.97h-18.27v-2.8h-14.94v2.8h-3.58ZM185.37,85.43v11.99c.83,0,1.61,0,2.38,0q1.28,0,1.28,1.24c0,8.36,0,16.72,0,25.08,0,.71.03,1.43.09,2.14.12,1.52.68,2.93,1.89,3.82,1.72,1.27,3.69,1.95,5.92,1.93,5.6-.06,11.19-.06,16.79,0,2.12.02,4-.47,5.84-1.54,1.88-1.08,2.72-2.59,2.72-4.69,0-7.97,0-15.94,0-23.91v-1.06h-14.85v17.96h-3.64v-20.99h18.44v-12.03h-18.54v-2.77h-14.72v2.81h-3.6ZM176.49,164.12c0-5.92,0-11.84,0-17.76,0-1.91-.68-3.45-2.28-4.58-1.51-1.06-3.14-1.67-5-1.67-5.89,0-11.78-.03-17.66.03-1.28.01-2.62.16-3.81.59-2.41.87-4.52,2.72-4.51,5.28.01,12,0,24,0,36.01,0,1.47.48,2.76,1.58,3.75,1.67,1.51,3.62,2.45,5.9,2.46,6.18.04,12.36.1,18.54-.02,3.69-.07,7.55-2.25,7.3-7.4-.27-5.55-.06-11.12-.06-16.68ZM101.39,35.99h-1.09c-2.96,0-5.93.1-8.88-.03-2.67-.12-4.76.9-6.71,2.58-1.17,1.01-1.63,2.19-1.63,3.67.01,5.76.04,11.52-.02,17.27-.02,2.17.83,3.78,2.61,4.91,1.41.9,2.97,1.47,4.67,1.47,8.36.01,16.72,0,25.09,0,.28,0,.55-.04.83-.06.03-.22.06-.35.06-.48,0-13.83.01-27.65-.01-41.48,0-1.33-.46-2.57-1.45-3.51-1.64-1.57-3.65-2.39-5.9-2.4-6.21-.04-12.43,0-18.64-.02-1.95,0-3.61.81-5.13,1.88-.67.47-1.2,1.29-1.52,2.07-.35.84-.52,1.81-.54,2.73-.07,2.69-.02,5.38-.02,8.11h14.72v-2.64h3.59v5.93ZM138.43,155.02v-12.04h-18.29v-2.87h-14.92v2.9h-3.74v12.07h3.74v1.4c0,8.36.01,16.72-.01,25.08,0,1.58.43,2.91,1.55,4.06,1.69,1.72,3.69,2.61,6.1,2.57,1.07-.02,2.15,0,3.22,0,5.2-.01,10.41.05,15.61-.06,3.91-.08,6.79-3.17,6.79-7.04,0-7.32,0-14.64,0-21.95v-1.18h-14.87v18.04h-3.39v-20.96h18.21ZM64.55,140.1v1.28c0,13.33.01,26.67-.02,40,0,1.87.49,3.36,2.02,4.6,1.72,1.38,3.55,2.23,5.78,2.21,2.67-.02,5.33,0,8,0,3.58,0,7.16.07,10.73-.06,3.95-.14,6.73-3.15,6.73-7.07,0-13.24,0-26.47,0-39.71v-1.21h-14.74v35.85h-3.58v-35.88h-14.92ZM121.37,17.98v47.83h14.66V30.03h3.62v35.77h14.89v-10.31c0-10.34,0-20.68,0-31.03,0-1.93-.54-3.71-2.2-4.74-1.32-.81-2.88-1.54-4.39-1.67-2.07-.18-4.23.05-6.28.46-1.93.38-3.77,1.21-5.69,1.86v-2.38h-14.61ZM182.71,82.54c-.47,0-.83,0-1.18,0-8.2,0-16.39-.03-24.59.04-1.19.01-2.45.35-3.56.81-2.7,1.12-3.94,3.12-3.92,6.17.09,13.59.04,27.19.04,40.78v1.22h14.97v-22.07h18.22c.04-.23.07-.36.07-.48,0-3.61-.01-7.22.02-10.83,0-.68-.28-.78-.88-.78-5.43.02-10.86.01-16.29.01-.37,0-.75,0-1.1,0v-2.87h18.21v-11.99ZM56.48,75.5v-3.29h-10.04v3.29h10.04Z"/>
      <path class="cls-2" d="M44.91,65.8V17.99c.31-.02.59-.07.87-.07,8.33,0,16.66.01,24.99-.02,1.99,0,3.69.75,5.24,1.84,1.51,1.07,2.11,2.7,2.12,4.5.03,4.78.02,9.56,0,14.35,0,1.71-.71,2.47-3.05,3.27.47.19.79.33,1.12.46,1.3.51,1.95,1.46,1.93,2.86,0,1.07,0,2.15,0,3.22,0,6.47,0,12.95,0,19.42,0,.38,0,.77,0,1.24h12.17v13.41c.45.02.79.05,1.14.05,3.42,0,6.83.01,10.25,0,2.18-.01,3.99.95,5.56,2.28,1.14.96,1.42,2.44,1.42,3.91,0,5.53,0,11.06,0,16.59,0,8.33,0,16.66,0,24.98v1.24h-14.67v-36.9h-3.66v36.93h-14.89v-50.45c-.32-.04-.57-.09-.82-.1-.85-.01-1.7-.08-2.54,0-3.19.34-5.68-1-7.83-3.17-.85-.86-1.08-1.97-1.08-3.14,0-8.49,0-16.98,0-25.47,0-.38,0-.76,0-1.19h-3.38v17.75h-14.91ZM63.14,30.07h-3.28v5.86h3.28v-5.86Z"/>
      <path class="cls-2" d="M40.12,17.92c0,.48,0,.83,0,1.19,0,18.48,0,36.95,0,55.43,0,1.55-.51,2.77-1.65,3.88-1.89,1.84-4.04,2.64-6.67,2.62-7.94-.07-15.88-.02-23.82-.02-.38,0-.77,0-1.21,0v-11.88h18.36v-3.2c-.34-.02-.68-.05-1.02-.05-3.32,0-6.64.07-9.96-.03-2.32-.07-4.49-.71-6.16-2.49-.84-.89-1.29-1.92-1.28-3.17,0-12.1-.01-24.2.02-36.3,0-2.1,1-3.65,2.93-4.68,1.76-.94,3.56-1.3,5.52-1.29,7.87.03,15.75.01,23.62.01h1.31ZM21.66,30.03v23.85h3.49v-23.85h-3.49Z"/>
      <path class="cls-2" d="M177.65,17.92V6.01h14.84v59.81c-.33.02-.65.05-.96.05-8.2,0-16.4.03-24.6-.02-1.99-.01-3.92-.44-5.53-1.79-1.33-1.11-2.09-2.45-2.09-4.21,0-11.87-.02-23.75.01-35.62,0-3.24,2.2-5.5,5.82-6.13.89-.15,1.81-.17,2.72-.18,3.21-.02,6.43,0,9.79,0ZM174.32,30.02v23.84h3.23v-23.84h-3.23Z"/>
      <path class="cls-2" d="M127.45,112.35v6.08h3.3v-2.71h14.99c0,.59,0,1.2,0,1.81,0,2.11.02,4.23-.01,6.34-.01.81-.11,1.62-.23,2.42-.52,3.31-3.86,5.27-7.02,5.3-6.18.06-12.36.1-18.54-.02-3.55-.07-6.78-1.9-7.31-5.56-.09-.61-.12-1.23-.13-1.84,0-11.8,0-23.61-.01-35.41,0-2.06.78-3.58,2.57-4.69,1.72-1.07,3.51-1.57,5.53-1.56,5.92.05,11.84.07,17.76,0,2.25-.03,4.02.97,5.68,2.22,1.07.81,1.65,2.05,1.66,3.41.03,8.03.01,16.06.01,24.21h-18.27ZM127.46,94.6v5.72h3.25v-5.72h-3.25Z"/>
      <path class="cls-2" d="M59.73,188.24h-1.03c-8.13,0-16.27,0-24.4,0-1.77,0-3.38-.45-4.92-1.34-2.01-1.16-2.88-2.87-2.87-5.15.03-5.69.07-11.39-.02-17.08-.04-2.28,1.05-3.82,2.67-5.11,1.45-1.15,3.15-1.63,5.01-1.61,3.16.03,6.31,0,9.47,0,.35,0,.71,0,1.12,0v-5.74h-3.53v2.82h-14.53c-.05-.07-.13-.12-.13-.17-.01-3.12-.1-6.24,0-9.36.08-2.63,2.02-3.87,4.13-4.78.96-.41,2.08-.6,3.13-.6,6.28-.05,12.56-.05,18.84-.01,2.58.01,4.66,1.27,6.21,3.19.61.76.89,1.99.89,3.01.06,13.79.04,27.58.04,41.38,0,.13-.03.25-.07.54ZM41.28,170.05v5.97h3.48v-5.97h-3.48Z"/>
      <path class="cls-2" d="M33.79,85.42h3.58v-2.8h14.94v2.8h18.27v11.97h-18.19v21.06h3.38v-17.98h14.82c.01.31.04.65.04,1,0,7.51.01,15.03-.01,22.54,0,.93-.12,1.89-.34,2.79-.73,3.04-3.64,4.74-7.01,4.79-6.24.09-12.49.13-18.73-.01-4.34-.1-7.15-2.93-7.15-7.44.01-8.49,0-16.98,0-25.46,0-.38,0-.76,0-1.26h-3.61v-11.98Z"/>
      <path class="cls-2" d="M185.37,85.43h3.6v-2.81h14.72v2.77h18.54v12.03h-18.44v20.99h3.64v-17.96h14.85v1.06c0,7.97,0,15.94,0,23.91,0,2.1-.84,3.61-2.72,4.69-1.84,1.06-3.73,1.56-5.84,1.54-5.6-.05-11.19-.06-16.79,0-2.23.03-4.19-.66-5.92-1.93-1.21-.89-1.77-2.3-1.89-3.82-.06-.71-.09-1.43-.09-2.14,0-8.36,0-16.72,0-25.08q0-1.24-1.28-1.24c-.77,0-1.55,0-2.38,0v-11.99Z"/>
      <path class="cls-2" d="M176.49,164.12c0,5.56-.21,11.13.06,16.68.25,5.15-3.61,7.33-7.3,7.4-6.18.12-12.36.06-18.54.02-2.27-.01-4.22-.96-5.9-2.46-1.1-.99-1.58-2.28-1.58-3.75,0-12,0-24.01,0-36.01,0-2.56,2.1-4.41,4.51-5.28,1.19-.43,2.53-.58,3.81-.59,5.89-.06,11.78-.02,17.66-.03,1.86,0,3.49.61,5,1.67,1.6,1.13,2.28,2.67,2.28,4.58,0,5.92,0,11.84,0,17.76ZM161.7,176.04v-23.82h-3.47v23.82h3.47Z"/>
      <path class="cls-2" d="M101.39,35.99v-5.93h-3.59v2.64h-14.72c0-2.73-.04-5.42.02-8.11.02-.92.19-1.89.54-2.73.32-.77.85-1.59,1.52-2.07,1.52-1.06,3.18-1.88,5.13-1.88,6.21.02,12.43-.02,18.64.02,2.25.02,4.26.84,5.9,2.4.99.94,1.45,2.18,1.45,3.51.02,13.83.01,27.65.01,41.48,0,.13-.03.26-.06.48-.28.02-.55.06-.83.06-8.36,0-16.72,0-25.09,0-1.7,0-3.26-.58-4.67-1.47-1.78-1.13-2.63-2.74-2.61-4.91.06-5.76.03-11.52.02-17.27,0-1.48.47-2.66,1.63-3.67,1.95-1.68,4.05-2.7,6.71-2.58,2.96.13,5.92.03,8.88.03h1.09ZM97.83,53.82h3.53v-5.75h-3.53v5.75Z"/>
      <path class="cls-2" d="M138.43,155.02h-18.21v20.96h3.39v-18.04h14.87v1.18c0,7.32,0,14.64,0,21.95,0,3.87-2.88,6.96-6.79,7.04-5.2.1-10.41.05-15.61.06-1.07,0-2.15-.02-3.22,0-2.41.04-4.41-.85-6.1-2.57-1.13-1.14-1.56-2.48-1.55-4.06.02-8.36.01-16.72.01-25.08v-1.4h-3.74v-12.07h3.74v-2.9h14.92v2.87h18.29v12.04Z"/>
      <path class="cls-2" d="M64.55,140.1h14.92v35.88h3.58v-35.85h14.74v1.21c0,13.24,0,26.47,0,39.71,0,3.92-2.78,6.93-6.73,7.07-3.57.12-7.15.05-10.73.06-2.67,0-5.33-.02-8,0-2.22.02-4.05-.82-5.78-2.21-1.53-1.23-2.02-2.72-2.02-4.6.03-13.33.02-26.67.02-40v-1.28Z"/>
      <path class="cls-2" d="M121.37,17.98h14.61v2.38c1.92-.65,3.76-1.48,5.69-1.86,2.05-.4,4.21-.64,6.28-.46,1.51.13,3.07.86,4.39,1.67,1.66,1.02,2.2,2.8,2.2,4.74,0,10.34,0,20.68,0,31.03v10.31h-14.89V30.03h-3.62v35.78h-14.66V17.98Z"/>
      <path class="cls-2" d="M182.71,82.54v11.99h-18.21v2.87c.36,0,.73,0,1.1,0,5.43,0,10.86,0,16.29-.01.6,0,.88.1.88.78-.03,3.61-.01,7.22-.02,10.83,0,.13-.04.25-.07.48h-18.22v22.07h-14.97v-1.22c0-13.59.05-27.19-.04-40.78-.02-3.05,1.21-5.06,3.92-6.17,1.11-.46,2.37-.8,3.56-.81,8.2-.07,16.39-.04,24.59-.04.36,0,.71,0,1.18,0Z"/>
      <path class="cls-2" d="M56.48,75.5h-10.04v-3.29h10.04v3.29Z"/>
      <path class="cls-1" d="M63.14,30.07v5.86h-3.28v-5.86h3.28Z"/>
      <path class="cls-1" d="M21.66,30.03h3.49v23.85h-3.49v-23.85Z"/>
      <path class="cls-1" d="M174.32,30.02h3.23v23.84h-3.23v-23.84Z"/>
      <path class="cls-1" d="M127.46,94.6h3.25v5.72h-3.25v-5.72Z"/>
      <path class="cls-1" d="M41.28,170.05h3.48v5.97h-3.48v-5.97Z"/>
      <path class="cls-1" d="M161.7,176.04h-3.47v-23.82h3.47v23.82Z"/>
      <path class="cls-1" d="M97.83,53.82v-5.75h3.53v5.75h-3.53Z"/>
    </g>
  </g>
</svg>