<?xml version="1.0" encoding="UTF-8"?>
<svg id="Layer_2" data-name="Layer 2" xmlns="http://www.w3.org/2000/svg" viewBox="0 0 401.84 623.95">
  <defs>
    <style>
      .cls-1 {
        fill: #fff;
        stroke-width: 0px;
      }
    </style>
  </defs>
  <g id="Layer_1-2" data-name="Layer 1">
    <g>
      <path class="cls-1" d="M392.05,448.29h-70.93c-5.06,0-9.16,4.1-9.16,9.16v68.83c0,5.06-4.1,9.16-9.16,9.16h-47.84c-5.06,0-9.16-4.1-9.16-9.16v-68.83c0-5.06-4.1-9.16-9.16-9.16h-71.06c-5.06,0-9.16,4.1-9.16,9.16v68c0,5.06-4.1,9.16-9.16,9.16h-47.84c-5.06,0-9.16-4.1-9.16-9.16v-68c0-5.06-4.1-9.16-9.16-9.16H9.17C4.11,448.29,0,452.39,0,457.45v157.33c0,5.06,4.1,9.16,9.16,9.16h382.89c5.06,0,9.16-4.1,9.16-9.16v-157.33c0-5.06-4.1-9.16-9.16-9.16Z"/>
      <path class="cls-1" d="M392.6,333.63h-71s-.01,0-.02,0h0c-5.05,0-9.14,4.09-9.14,9.14v71.04c0,5.05,4.09,9.14,9.14,9.14h71.04c5.05,0,9.14-4.09,9.14-9.14v-71.04c0-5.05-4.09-9.14-9.14-9.14h0s-.01,0-.02,0Z"/>
      <path class="cls-1" d="M9.16,422.96h268.77c5.06,0,9.16-4.1,9.16-9.16v-71c0-5.06-4.1-9.17-9.16-9.17H98.26c-5.06,0-9.16-4.1-9.16-9.16V11.27c0-5.06-4.1-9.16-9.16-9.16H9.16C4.1,2.1,0,6.21,0,11.27v402.52c0,5.06,4.1,9.16,9.16,9.16Z"/>
      <path class="cls-1" d="M393.15,156.86h-138.04c-4.83,0-8.75-3.92-8.75-8.75v-49.21c0-4.83,3.92-8.75,8.75-8.75h135.56c4.8,0,8.69-3.89,8.69-8.69V8.69c0-4.8-3.89-8.69-8.69-8.69h-224.98c-5.24,0-9.48,4.24-9.48,9.48v288.02c0,4.8,3.89,8.69,8.69,8.69h72.77c4.8,0,8.69-3.89,8.69-8.69v-43.44c0-4.8,3.89-8.69,8.69-8.69h138.1c4.8,0,8.69-3.89,8.69-8.69v-71.12c0-4.8-3.89-8.69-8.69-8.69Z"/>
    </g>
  </g>
</svg>