<?xml version="1.0" encoding="UTF-8"?>
<svg id="Layer_2" data-name="Layer 2" xmlns="http://www.w3.org/2000/svg" viewBox="0 0 650.58 141.4">
  <defs>
    <style>
      .cls-1 {
        fill: #fff;
        stroke-width: 0px;
      }
    </style>
  </defs>
  <g id="Layer_1-2" data-name="Layer 1">
    <g id="DN6BgA.tif">
      <g>
        <path class="cls-1" d="M650.58,113.1h-1.23v-7.49c-.08-.02-.17-.04-.25-.07-.35.9-.7,1.81-1.04,2.71-.48,1.31-.93,2.63-1.44,3.92-.14.34-.46.62-.7.92-.24-.29-.58-.54-.71-.88-.7-1.81-1.34-3.64-2.01-5.46-.14-.38-.3-.75-.65-1.1v7.35c-.44.04-.79.07-1.22.11v-9.67c1.79-.45,1.82-.43,2.39,1.19.69,1.95,1.39,3.89,2.19,6.14.73-2.02,1.5-3.75,1.98-5.55.4-1.5,1.09-2.25,2.67-2.01v9.9Z"/>
        <path class="cls-1" d="M68.05,0c2.62.58,5.1,1.08,7.56,1.68,13.51,3.32,26.92,7.02,39.87,12.16,4.73,1.88,9.22,4.24,13.29,7.34,5.71,4.34,9.67,9.91,11.54,16.85,2.41,8.95,2.8,18.02.97,27.12-.76,3.77-2.23,7.29-4.68,10.29-5,6.12-11.58,7.56-18.99,6.01-2.42-.51-4.73-1.55-7.1-2.3-.92-.29-1.16-.84-1.16-1.78.03-14,.05-28.01,0-42.01,0-2.22-.2-4.49-.66-6.66-.61-2.84-2.41-4.79-5.36-5.5-1.81-.44-3.42,0-4.22,1.69-.75,1.56-1.05,3.34-1.47,5.04-.15.6-.04,1.26-.04,1.9,0,35.79,0,71.58,0,107.37v1.79c-1.39-.44-2.67-.83-3.94-1.23-8.18-2.61-16.35-5.23-24.53-7.8-.91-.28-1.15-.69-1.15-1.6.02-42.98.02-85.96.02-128.95,0-.37.03-.75.06-1.41Z"/>
        <path class="cls-1" d="M499.67,112.84v-9.11h1.67c29.48,0,58.95-.01,88.43.01,4.33,0,8.12-1.25,11.44-4.06,6.13-5.18,7.7-19.39-4-24.4-2.76-1.18-5.64-1.76-8.64-1.76-24.27,0-48.54.03-72.8-.04-2.59,0-5.27-.32-7.74-1.06-5.08-1.5-8.38-6.04-8.41-11.19-.06-10.79-.02-21.57-.02-32.36,0-.17.03-.33.06-.59h120.61v8.92h-102.78c-.03.55-.06.99-.06,1.43,0,6.22,0,12.44,0,18.66,0,5.03,2.43,7.45,7.51,7.45,23.8,0,47.6.02,71.41,0,6.47,0,12.53,1.36,17.92,5.02,6.38,4.33,9.33,10.5,9.44,18.12.09,6.42-1.3,12.38-5.82,17.21-4.72,5.05-10.72,7.73-17.52,7.76-33.2.14-66.41.07-99.61.06-.33,0-.66-.03-1.09-.05Z"/>
        <path class="cls-1" d="M229.26,37.23v-8.99c.45-.02.89-.07,1.33-.07,33.03,0,66.07-.02,99.1.01,5.28,0,10.24,1.39,14.61,4.4,7.26,5,9.48,12.34,8.78,20.64-.93,11-8.64,18.64-19.72,20-1.59.2-3.21.27-4.81.27-22.28.02-44.55,0-66.83.02-7.88,0-13.63,4.94-14.83,12.7-.12.79-.12,1.6-.12,2.4,0,7.53,0,15.06,0,22.59,0,.46,0,.92,0,1.46h-17.48c-.03-.34-.08-.63-.08-.91,0-8.42-.14-16.84.07-25.25.18-7.21,3.18-13.17,9.09-17.46,4.56-3.32,9.81-4.34,15.36-4.33,22.11.02,44.21,0,66.32.02,2.84,0,5.56-.46,8.12-1.71,5.12-2.52,7.6-6.7,7.45-12.36-.16-5.9-3.03-10.07-8.55-12.13-2.09-.78-4.44-1.23-6.68-1.24-29.81-.08-59.63-.05-89.45-.05-.54,0-1.08,0-1.68,0Z"/>
        <path class="cls-1" d="M347.64,112.82v-9.11c.55,0,1.05,0,1.54,0,13.89,0,27.79-.19,41.67.08,9.55.18,14.18-7.27,14.2-14.18.05-12.01.03-24.03,0-36.04,0-4.23.47-8.36,2.24-12.25,3.18-6.99,8.88-10.78,16.15-12.44,2.04-.46,4.19-.67,6.29-.67,16.6-.05,33.2-.03,49.81-.03.54,0,1.08,0,1.68,0v9.06c-.51,0-.99,0-1.48,0-14.23,0-28.46,0-42.69,0-8.1,0-13.96,5.77-13.98,13.89-.04,12.77-.17,25.55.03,38.32.24,15.23-12.41,23.28-23.03,23.37-17.24.15-34.47.05-51.71.06-.21,0-.41-.03-.74-.05Z"/>
        <path class="cls-1" d="M103.2,138.9c0-5.57-.02-10.98.04-16.39,0-.35.57-.85.98-1,6.63-2.41,13.29-4.77,19.93-7.14,8.76-3.12,17.53-6.22,26.26-9.4,1.45-.53,2.88-1.26,4.11-2.18,1.51-1.12,1.37-2.68-.38-3.35-1.98-.76-4.12-1.31-6.23-1.48-4.55-.36-9.03.3-13.36,1.83-10,3.54-20.01,7.05-30.02,10.57-.39.14-.79.25-1.33.42,0-1.88,0-3.64,0-5.4,0-3.72.03-7.44-.02-11.17-.01-.91.25-1.33,1.14-1.62,13.53-4.34,27.32-6.33,41.54-4.95,9.12.88,17.95,2.93,26.38,6.48,2.42,1.02,4.78,2.43,6.77,4.13,3.81,3.25,3.77,7.4.15,10.87-3.2,3.08-7.11,5.04-11.22,6.53-21.22,7.68-42.47,15.3-63.7,22.93-.27.1-.56.16-1.05.3Z"/>
        <path class="cls-1" d="M62.24,79.77c0,4.46,0,8.86,0,13.25,0,1.26.39,2.84-.21,3.7-.6.86-2.21,1.03-3.4,1.46-8.87,3.2-17.75,6.36-26.6,9.6-1.41.52-2.8,1.23-4,2.12-1.51,1.12-1.4,2.72.33,3.37,2.1.79,4.37,1.35,6.61,1.51,4.64.34,9.19-.41,13.58-2.04,4.16-1.54,8.34-3.04,12.51-4.56.35-.13.71-.22,1.12-.35v15.51c-3.92.46-7.81,1.08-11.72,1.35-13.75.97-27.09-1.07-40.03-5.75-2.76-1-5.36-2.34-7.49-4.41-2.13-2.07-3.54-4.46-2.68-7.59.53-1.93,1.82-3.31,3.41-4.44,3.81-2.73,8.02-4.74,12.39-6.33,15.1-5.48,30.24-10.84,45.36-16.25.23-.08.48-.09.83-.16Z"/>
        <path class="cls-1" d="M163.12,134c-.01-4.13,3.24-7.47,7.3-7.51,4.06-.04,7.4,3.28,7.43,7.4.03,4.09-3.28,7.48-7.32,7.52-4.06.04-7.39-3.29-7.41-7.41ZM164.36,133.97c.02,3.41,2.78,6.22,6.07,6.18,3.4-.05,6.18-2.88,6.16-6.28-.02-3.39-2.75-6.13-6.12-6.14-3.43,0-6.14,2.75-6.12,6.24Z"/>
        <path class="cls-1" d="M637.23,113.04h-1.31v-8.53h-2.81v-1.26c2.17,0,4.31-.03,6.46.04.25,0,.48.54.71.83l-.21.31h-2.84v8.61Z"/>
        <path class="cls-1" d="M174.12,137.87h-1.53c-.08-.6-.25-1.18-.22-1.75.07-1.23-.51-1.69-1.66-1.64-.59.02-1.17,0-1.91,0v3.38h-1.4v-8.23c1.52,0,3-.12,4.46.03,1.86.19,2.61,1.97,1.69,3.62-.15.26-.09.67-.04,1,.18,1.15.39,2.29.62,3.59ZM168.8,133.19c.98,0,1.85.12,2.66-.05.39-.08.94-.68.95-1.05,0-.38-.51-1.04-.89-1.11-.88-.17-1.81-.05-2.71-.05v2.26Z"/>
      </g>
    </g>
  </g>
</svg>